<svg width="100" height="68" viewBox="0 0 100 68" fill="none" xmlns="http://www.w3.org/2000/svg">
<path d="M79.1667 67.3334H25.0001C11.9766 67.3411 1.12878 57.3494 0.068235 44.3692C-0.992307 31.389 8.08974 19.769 20.9417 17.6626C26.8572 7.17459 37.9589 0.681365 50.0001 0.666496C57.5084 0.638115 64.8019 3.17215 70.6751 7.85007C76.4421 12.4245 80.5422 18.7708 82.3417 25.9084C93.108 27.5627 100.783 37.2314 99.9501 48.0922C99.1177 58.9529 90.0593 67.3392 79.1667 67.3334ZM50.0001 9.00003C40.9655 9.01071 32.6362 13.8838 28.2001 21.7542L26.2501 25.2501L22.2959 25.8959C13.7554 27.3267 7.73343 35.0596 8.43844 43.6904C9.14346 52.3212 16.3406 58.9742 25.0001 59.0001H79.1667C85.7024 59.0068 91.1401 53.9776 91.6426 47.4612C92.1451 40.9448 87.5429 35.1413 81.0834 34.1459L75.6001 33.3126L74.2584 27.9292C71.4887 16.7909 61.4775 8.97905 50.0001 9.00003ZM56.0417 50.6667H43.9584V38.1667H33.3334L50.0001 21.5001L66.6667 38.1667H56.0417V50.6667Z" fill="#2E3A59"/>
</svg>
